<svg width="291" height="173" viewBox="0 0 291 173" fill="none" xmlns="http://www.w3.org/2000/svg">
<path d="M189.444 24H260L291 54V173H149L102 126H55L0 71V0H165L189.444 24Z" fill="black"/>
<path d="M255 29V137H194V29H255Z" fill="white"/>
<path d="M160 5V113H99V66H5V5H160Z" fill="white"/>
<path fill-rule="evenodd" clip-rule="evenodd" d="M224.977 100.761L225.648 101.368H225.905C227.505 101.368 228.935 101.753 230.193 102.521C231.452 103.288 232.444 104.334 233.169 105.656C233.894 106.979 234.257 108.483 234.257 110.168C234.257 112.024 233.83 113.667 232.977 115.097C232.145 116.505 230.992 117.614 229.521 118.425C228.07 119.235 226.385 119.641 224.465 119.641C222.588 119.641 220.912 119.245 219.44 118.456C217.969 117.645 216.817 116.526 215.985 115.097C215.153 113.667 214.737 112.024 214.737 110.168C214.737 108.824 214.971 107.49 215.44 106.168C215.931 104.824 216.678 103.427 217.681 101.977L223.633 93.4004H230.353L224.977 100.761ZM224.529 106.168C223.783 106.168 223.121 106.339 222.545 106.681C221.99 107.001 221.552 107.459 221.232 108.057C220.913 108.654 220.753 109.358 220.753 110.168C220.753 110.979 220.903 111.683 221.201 112.28C221.521 112.878 221.958 113.347 222.513 113.688C223.067 114.008 223.718 114.168 224.465 114.168C225.233 114.168 225.895 114.008 226.449 113.688C227.004 113.347 227.441 112.878 227.761 112.28C228.081 111.662 228.241 110.957 228.241 110.168C228.241 109.358 228.081 108.654 227.761 108.057C227.462 107.459 227.035 107.001 226.48 106.681C225.947 106.339 225.297 106.168 224.529 106.168Z" fill="black"/>
<path d="M130.169 68.7598C132.089 68.7598 133.742 69.1541 135.129 69.9434C136.516 70.7327 137.603 71.8748 138.393 73.3682C139.182 74.8614 139.641 76.6636 139.769 78.7754H134.265C133.966 77.2396 133.476 76.0982 132.793 75.3516C132.132 74.605 131.257 74.2315 130.169 74.2314C128.761 74.2314 127.694 74.8932 126.969 76.2158C126.265 77.5172 125.913 79.5123 125.913 82.2002C125.913 84.888 126.244 86.8932 126.905 88.2158C127.567 89.517 128.569 90.168 129.913 90.168C130.916 90.1679 131.737 89.8262 132.377 89.1436C133.017 88.4396 133.496 87.3726 133.816 85.9434H139.321C139.193 87.9912 138.724 89.7408 137.913 91.1914C137.124 92.6207 136.046 93.7193 134.681 94.4873C133.337 95.2553 131.748 95.6396 129.913 95.6396C126.649 95.6396 124.164 94.4984 122.457 92.2158C120.75 89.9332 119.897 86.5947 119.896 82.2002C119.896 77.8056 120.771 74.4663 122.521 72.1836C124.291 69.9009 126.841 68.7598 130.169 68.7598Z" fill="black"/>
<path d="M224.785 45.7598C226.726 45.7598 228.38 46.1115 229.745 46.8154C231.132 47.4981 232.199 48.4798 232.945 49.7598C233.692 51.0397 234.064 52.5763 234.064 54.3682C234.064 56.2239 233.574 57.8449 232.593 59.2314C231.611 60.5967 230.076 61.8133 227.985 62.8799L222.705 65.6318V66.2715H233.457V72H215.856V63.6475L225.457 58.1436C226.353 57.6529 227.004 57.0981 227.409 56.4795C227.836 55.861 228.049 55.1572 228.049 54.3682C228.049 53.3655 227.771 52.5968 227.217 52.0635C226.662 51.5089 225.862 51.2314 224.816 51.2314C223.793 51.2315 222.939 51.5416 222.257 52.1602C221.596 52.7788 221.148 53.6745 220.913 54.8477H215.217C215.345 52.9064 215.804 51.2639 216.593 49.9199C217.382 48.5547 218.47 47.5194 219.856 46.8154C221.243 46.1114 222.886 45.7598 224.785 45.7598Z" fill="black"/>
<path d="M82.9766 21.7598C84.8752 21.7598 86.5186 22.1332 87.9053 22.8799C89.2917 23.6265 90.3797 24.7144 91.1689 26.1436C91.9583 27.5515 92.406 29.2584 92.5127 31.2637H86.8809C86.6035 29.8984 86.134 28.885 85.4727 28.2236C84.8327 27.5624 84.0005 27.2314 82.9766 27.2314C81.526 27.2315 80.4273 27.8932 79.6807 29.2158C78.9554 30.5172 78.5928 32.5123 78.5928 35.2002C78.5928 38.101 78.9555 40.2234 79.6807 41.5674C80.406 42.9114 81.5689 43.584 83.1689 43.584C83.8942 43.584 84.5233 43.4126 85.0566 43.0713C85.6112 42.73 86.0383 42.2613 86.3369 41.6641C86.6569 41.0454 86.8164 40.3411 86.8164 39.5518H82.3691V34.3037H92.0645V48H86.8164V45.8555H85.5049C85.2276 46.7087 84.6945 47.3705 83.9053 47.8398C83.116 48.3091 82.145 48.5439 80.9932 48.5439C78.3053 48.5439 76.2358 47.4025 74.7852 45.1201C73.3345 42.8162 72.6084 39.5093 72.6084 35.2002C72.6084 30.8056 73.4831 27.4663 75.2324 25.1836C77.003 22.901 79.5847 21.7598 82.9766 21.7598Z" fill="black"/>
<path d="M30.5693 29.6641L31.0811 42.5605H31.7207L32.6484 28.1602H38.793L39.5605 42.5605H40.2012L40.7129 29.6641L41.0332 22.4004H46.3125L44.2012 48H36.7129L35.8486 33.376H35.209L34.249 48H26.793L24.6807 22.4004H30.249L30.5693 29.6641Z" fill="black"/>
<path d="M138.777 28.1279H132.505V42.2725H138.777V48H120.217V42.2725H126.489V28.1279H120.217V22.4004H138.777V28.1279Z" fill="black"/>
</svg>
