<svg width="320" height="320" viewBox="0 0 320 320" fill="none" xmlns="http://www.w3.org/2000/svg">
<path d="M204.444 97H275L306 127V246H164L117 199H70L15 144V73H180L204.444 97Z" fill="black"/>
<path d="M270 102V210H209V102H270Z" fill="white"/>
<path d="M175 78V186H114V139H20V78H175Z" fill="white"/>
<path fill-rule="evenodd" clip-rule="evenodd" d="M239.977 173.761L240.648 174.368H240.905C242.505 174.368 243.935 174.753 245.193 175.521C246.452 176.288 247.444 177.334 248.169 178.656C248.894 179.979 249.257 181.483 249.257 183.168C249.257 185.024 248.83 186.667 247.977 188.097C247.145 189.505 245.992 190.614 244.521 191.425C243.07 192.235 241.385 192.641 239.465 192.641C237.588 192.641 235.912 192.245 234.44 191.456C232.969 190.645 231.817 189.526 230.985 188.097C230.153 186.667 229.737 185.024 229.737 183.168C229.737 181.824 229.971 180.49 230.44 179.168C230.931 177.824 231.678 176.427 232.681 174.977L238.633 166.4H245.353L239.977 173.761ZM239.529 179.168C238.783 179.168 238.121 179.339 237.545 179.681C236.99 180.001 236.552 180.459 236.232 181.057C235.913 181.654 235.753 182.358 235.753 183.168C235.753 183.979 235.903 184.683 236.201 185.28C236.521 185.878 236.958 186.347 237.513 186.688C238.067 187.008 238.718 187.168 239.465 187.168C240.233 187.168 240.895 187.008 241.449 186.688C242.004 186.347 242.441 185.878 242.761 185.28C243.081 184.662 243.241 183.957 243.241 183.168C243.241 182.358 243.081 181.654 242.761 181.057C242.462 180.459 242.035 180.001 241.48 179.681C240.947 179.339 240.297 179.168 239.529 179.168Z" fill="black"/>
<path d="M145.169 141.76C147.089 141.76 148.742 142.154 150.129 142.943C151.516 143.733 152.603 144.875 153.393 146.368C154.182 147.861 154.641 149.664 154.769 151.775H149.265C148.966 150.24 148.476 149.098 147.793 148.352C147.132 147.605 146.257 147.231 145.169 147.231C143.761 147.231 142.694 147.893 141.969 149.216C141.265 150.517 140.913 152.512 140.913 155.2C140.913 157.888 141.244 159.893 141.905 161.216C142.567 162.517 143.569 163.168 144.913 163.168C145.916 163.168 146.737 162.826 147.377 162.144C148.017 161.44 148.496 160.373 148.816 158.943H154.321C154.193 160.991 153.724 162.741 152.913 164.191C152.124 165.621 151.046 166.719 149.681 167.487C148.337 168.255 146.748 168.64 144.913 168.64C141.649 168.64 139.164 167.498 137.457 165.216C135.75 162.933 134.897 159.595 134.896 155.2C134.896 150.806 135.771 147.466 137.521 145.184C139.291 142.901 141.841 141.76 145.169 141.76Z" fill="black"/>
<path d="M239.785 118.76C241.726 118.76 243.38 119.111 244.745 119.815C246.132 120.498 247.199 121.48 247.945 122.76C248.692 124.04 249.064 125.576 249.064 127.368C249.064 129.224 248.574 130.845 247.593 132.231C246.611 133.597 245.076 134.813 242.985 135.88L237.705 138.632V139.271H248.457V145H230.856V136.647L240.457 131.144C241.353 130.653 242.004 130.098 242.409 129.479C242.836 128.861 243.049 128.157 243.049 127.368C243.049 126.365 242.771 125.597 242.217 125.063C241.662 124.509 240.862 124.231 239.816 124.231C238.793 124.232 237.939 124.542 237.257 125.16C236.596 125.779 236.148 126.675 235.913 127.848H230.217C230.345 125.906 230.804 124.264 231.593 122.92C232.382 121.555 233.47 120.519 234.856 119.815C236.243 119.111 237.886 118.76 239.785 118.76Z" fill="black"/>
<path d="M97.9766 94.7598C99.8752 94.7598 101.519 95.1332 102.905 95.8799C104.292 96.6265 105.38 97.7144 106.169 99.1436C106.958 100.552 107.406 102.258 107.513 104.264H101.881C101.604 102.898 101.134 101.885 100.473 101.224C99.8327 100.562 99.0005 100.231 97.9766 100.231C96.5261 100.232 95.4273 100.893 94.6807 102.216C93.9554 103.517 93.5928 105.512 93.5928 108.2C93.5928 111.101 93.9555 113.223 94.6807 114.567C95.406 115.911 96.5689 116.584 98.1689 116.584C98.8942 116.584 99.5233 116.413 100.057 116.071C100.611 115.73 101.038 115.261 101.337 114.664C101.657 114.045 101.816 113.341 101.816 112.552H97.3691V107.304H107.064V121H101.816V118.855H100.505C100.228 119.709 99.6945 120.371 98.9053 120.84C98.116 121.309 97.145 121.544 95.9932 121.544C93.3053 121.544 91.2358 120.403 89.7852 118.12C88.3345 115.816 87.6084 112.509 87.6084 108.2C87.6084 103.806 88.4831 100.466 90.2324 98.1836C92.003 95.901 94.5847 94.7598 97.9766 94.7598Z" fill="black"/>
<path d="M45.5693 102.664L46.0811 115.561H46.7207L47.6484 101.16H53.793L54.5605 115.561H55.2012L55.7129 102.664L56.0332 95.4004H61.3125L59.2012 121H51.7129L50.8486 106.376H50.209L49.249 121H41.793L39.6807 95.4004H45.249L45.5693 102.664Z" fill="black"/>
<path d="M153.777 101.128H147.505V115.272H153.777V121H135.217V115.272H141.489V101.128H135.217V95.4004H153.777V101.128Z" fill="black"/>
</svg>
