<svg width="320" height="320" viewBox="0 0 320 320" fill="none" xmlns="http://www.w3.org/2000/svg">
<path d="M254 88V135.709L276 157V276H205L174 245V223.5H86L44 180.5V109.5H91V43H209L254 88Z" fill="black"/>
<path d="M240 132V240H179V132H240Z" fill="white"/>
<path d="M204 48V109H157V175H49V114H96V48H204Z" fill="white"/>
<path fill-rule="evenodd" clip-rule="evenodd" d="M209.977 203.761L210.648 204.368H210.905C212.505 204.368 213.935 204.753 215.193 205.521C216.452 206.288 217.444 207.334 218.169 208.656C218.894 209.979 219.257 211.483 219.257 213.168C219.257 215.024 218.83 216.667 217.977 218.097C217.145 219.505 215.992 220.614 214.521 221.425C213.07 222.235 211.385 222.641 209.465 222.641C207.588 222.641 205.912 222.245 204.44 221.456C202.969 220.645 201.817 219.526 200.985 218.097C200.153 216.667 199.737 215.024 199.737 213.168C199.737 211.824 199.971 210.49 200.44 209.168C200.931 207.824 201.678 206.427 202.681 204.977L208.633 196.4H215.353L209.977 203.761ZM209.529 209.168C208.783 209.168 208.121 209.339 207.545 209.681C206.99 210.001 206.552 210.459 206.232 211.057C205.913 211.654 205.753 212.358 205.753 213.168C205.753 213.979 205.903 214.683 206.201 215.28C206.521 215.878 206.958 216.347 207.513 216.688C208.067 217.008 208.718 217.168 209.465 217.168C210.233 217.168 210.895 217.008 211.449 216.688C212.004 216.347 212.441 215.878 212.761 215.28C213.081 214.662 213.241 213.957 213.241 213.168C213.241 212.358 213.081 211.654 212.761 211.057C212.462 210.459 212.035 210.001 211.48 209.681C210.947 209.339 210.297 209.168 209.529 209.168Z" fill="black"/>
<path d="M209.785 148.76C211.726 148.76 213.38 149.111 214.745 149.815C216.132 150.498 217.199 151.48 217.945 152.76C218.692 154.04 219.064 155.576 219.064 157.368C219.064 159.224 218.574 160.845 217.593 162.231C216.611 163.597 215.075 164.813 212.984 165.88L207.705 168.632V169.271H218.457V175H200.856V166.647L210.457 161.144C211.353 160.653 212.004 160.098 212.409 159.479C212.836 158.861 213.049 158.157 213.049 157.368C213.049 156.365 212.771 155.597 212.217 155.063C211.662 154.509 210.862 154.231 209.816 154.231C208.793 154.232 207.939 154.542 207.257 155.16C206.596 155.779 206.148 156.675 205.913 157.848H200.217C200.345 155.906 200.804 154.264 201.593 152.92C202.382 151.555 203.47 150.519 204.856 149.815C206.243 149.111 207.886 148.76 209.785 148.76Z" fill="black"/>
<path d="M126.977 130.76C128.875 130.76 130.519 131.133 131.905 131.88C133.292 132.627 134.38 133.714 135.169 135.144C135.958 136.552 136.406 138.258 136.513 140.264H130.881C130.604 138.898 130.134 137.885 129.473 137.224C128.833 136.562 128 136.231 126.977 136.231C125.526 136.232 124.427 136.893 123.681 138.216C122.955 139.517 122.593 141.512 122.593 144.2C122.593 147.101 122.955 149.223 123.681 150.567C124.406 151.911 125.569 152.584 127.169 152.584C127.894 152.584 128.523 152.413 129.057 152.071C129.611 151.73 130.038 151.261 130.337 150.664C130.657 150.045 130.816 149.341 130.816 148.552H126.369V143.304H136.064V157H130.816V154.855H129.505C129.228 155.709 128.694 156.371 127.905 156.84C127.116 157.309 126.145 157.544 124.993 157.544C122.305 157.544 120.236 156.403 118.785 154.12C117.335 151.816 116.608 148.509 116.608 144.2C116.608 139.806 117.483 136.466 119.232 134.184C121.003 131.901 123.585 130.76 126.977 130.76Z" fill="black"/>
<path d="M74.5693 138.664L75.0811 151.561H75.7207L76.6484 137.16H82.793L83.5605 151.561H84.2012L84.7129 138.664L85.0332 131.4H90.3125L88.2012 157H80.7129L79.8486 142.376H79.209L78.249 157H70.793L68.6807 131.4H74.249L74.5693 138.664Z" fill="black"/>
<path d="M174.169 64.7598C176.089 64.7598 177.742 65.1541 179.129 65.9434C180.516 66.7327 181.603 67.8748 182.393 69.3682C183.182 70.8614 183.641 72.6637 183.769 74.7754H178.265C177.966 73.2396 177.476 72.0982 176.793 71.3516C176.132 70.605 175.257 70.2315 174.169 70.2314C172.761 70.2314 171.694 70.8932 170.969 72.2158C170.265 73.5172 169.913 75.5123 169.913 78.2002C169.913 80.888 170.244 82.8932 170.905 84.2158C171.567 85.517 172.569 86.168 173.913 86.168C174.916 86.1679 175.737 85.8262 176.377 85.1436C177.017 84.4396 177.496 83.3726 177.816 81.9434H183.321C183.193 83.9912 182.724 85.7408 181.913 87.1914C181.124 88.6207 180.046 89.7193 178.681 90.4873C177.337 91.2553 175.748 91.6396 173.913 91.6396C170.649 91.6396 168.164 90.4984 166.457 88.2158C164.75 85.9332 163.897 82.5947 163.896 78.2002C163.896 73.8056 164.771 70.4663 166.521 68.1836C168.291 65.9009 170.841 64.7598 174.169 64.7598Z" fill="black"/>
<path d="M135.777 71.1279H129.505V85.2725H135.777V91H117.217V85.2725H123.489V71.1279H117.217V65.4004H135.777V71.1279Z" fill="black"/>
</svg>
