<svg width="320" height="320" viewBox="0 0 320 320" fill="none" xmlns="http://www.w3.org/2000/svg">
<path d="M187 88V129H227L258 159V278H93L62 247V176H85L69 160V42H140L187 88Z" fill="black"/>
<path d="M222 134V242H67V181H161V134H222Z" fill="white"/>
<path d="M135 47V155H74V47H135Z" fill="white"/>
<path d="M144.977 197.76C146.875 197.76 148.519 198.133 149.905 198.88C151.292 199.627 152.38 200.714 153.169 202.144C153.958 203.552 154.406 205.258 154.513 207.264H148.881C148.604 205.898 148.134 204.885 147.473 204.224C146.833 203.562 146 203.231 144.977 203.231C143.526 203.232 142.427 203.893 141.681 205.216C140.955 206.517 140.593 208.512 140.593 211.2C140.593 214.101 140.956 216.223 141.681 217.567C142.406 218.911 143.569 219.584 145.169 219.584C145.894 219.584 146.523 219.413 147.057 219.071C147.611 218.73 148.038 218.261 148.337 217.664C148.657 217.045 148.816 216.341 148.816 215.552H144.369V210.304H154.064V224H148.816V221.855H147.505C147.228 222.709 146.694 223.371 145.905 223.84C145.116 224.309 144.145 224.544 142.993 224.544C140.305 224.544 138.236 223.403 136.785 221.12C135.335 218.816 134.609 215.509 134.609 211.2C134.609 206.806 135.483 203.466 137.232 201.184C139.003 198.901 141.585 197.76 144.977 197.76Z" fill="black"/>
<path d="M92.5693 205.664L93.0811 218.561H93.7207L94.6484 204.16H100.793L101.561 218.561H102.201L102.713 205.664L103.033 198.4H108.312L106.201 224H98.7129L97.8486 209.376H97.209L96.249 224H88.793L86.6807 198.4H92.249L92.5693 205.664Z" fill="black"/>
<path d="M200.776 204.128H194.505V218.272H200.776V224H182.217V218.272H188.489V204.128H182.217V198.4H200.776V204.128Z" fill="black"/>
<path d="M192.169 150C194.089 150 195.742 150.394 197.129 151.184C198.516 151.973 199.603 153.115 200.393 154.608C201.182 156.102 201.641 157.904 201.769 160.016H196.265C195.966 158.48 195.476 157.338 194.793 156.592C194.132 155.845 193.257 155.472 192.169 155.472C190.761 155.472 189.694 156.133 188.969 157.456C188.265 158.757 187.913 160.753 187.913 163.44C187.913 166.128 188.244 168.133 188.905 169.456C189.567 170.757 190.569 171.408 191.913 171.408C192.916 171.408 193.737 171.066 194.377 170.384C195.017 169.68 195.497 168.613 195.817 167.184H201.321C201.193 169.231 200.724 170.981 199.913 172.432C199.124 173.861 198.046 174.96 196.681 175.728C195.337 176.496 193.748 176.88 191.913 176.88C188.649 176.88 186.164 175.739 184.457 173.456C182.75 171.173 181.898 167.835 181.897 163.44C181.897 159.046 182.771 155.706 184.521 153.424C186.291 151.141 188.841 150 192.169 150Z" fill="black"/>
<path fill-rule="evenodd" clip-rule="evenodd" d="M104.977 118.761L105.648 119.368H105.905C107.505 119.368 108.934 119.753 110.192 120.521C111.451 121.288 112.444 122.334 113.169 123.656C113.894 124.979 114.257 126.483 114.257 128.168C114.257 130.024 113.83 131.667 112.977 133.097C112.145 134.505 110.992 135.614 109.521 136.425C108.07 137.235 106.385 137.641 104.465 137.641C102.588 137.641 100.912 137.245 99.4404 136.456C97.9686 135.645 96.8163 134.526 95.9844 133.097C95.1524 131.667 94.7373 130.024 94.7373 128.168C94.7374 126.824 94.9711 125.49 95.4404 124.168C95.9311 122.824 96.6781 121.427 97.6807 119.977L103.633 111.4H110.353L104.977 118.761ZM104.529 124.168C103.783 124.168 103.121 124.339 102.545 124.681C101.99 125.001 101.552 125.459 101.232 126.057C100.913 126.654 100.753 127.358 100.753 128.168C100.753 128.979 100.903 129.683 101.201 130.28C101.521 130.878 101.958 131.347 102.513 131.688C103.067 132.008 103.718 132.168 104.465 132.168C105.233 132.168 105.895 132.008 106.449 131.688C107.004 131.347 107.441 130.878 107.761 130.28C108.081 129.662 108.241 128.957 108.241 128.168C108.241 127.358 108.081 126.654 107.761 126.057C107.462 125.459 107.035 125.001 106.48 124.681C105.947 124.339 105.297 124.168 104.529 124.168Z" fill="black"/>
<path d="M104.785 63.7598C106.726 63.7598 108.38 64.1115 109.745 64.8154C111.132 65.4981 112.198 66.4799 112.944 67.7598C113.691 69.0398 114.064 70.5762 114.064 72.3682C114.064 74.2239 113.574 75.8449 112.593 77.2314C111.611 78.5968 110.075 79.8132 107.984 80.8799L102.705 83.6318V84.2715H113.457V90H95.8564V81.6475L105.457 76.1436C106.353 75.6529 107.004 75.0981 107.409 74.4795C107.836 73.861 108.049 73.1572 108.049 72.3682C108.049 71.3655 107.771 70.5968 107.217 70.0635C106.662 69.5089 105.862 69.2314 104.816 69.2314C103.793 69.2315 102.939 69.5416 102.257 70.1602C101.596 70.7788 101.148 71.6745 100.913 72.8477H95.2168C95.3448 70.9064 95.8035 69.2639 96.5928 67.9199C97.3821 66.5546 98.4698 65.5194 99.8564 64.8154C101.243 64.1114 102.886 63.7598 104.785 63.7598Z" fill="black"/>
</svg>
