<svg width="320" height="320" viewBox="0 0 320 320" fill="none" xmlns="http://www.w3.org/2000/svg">
<path d="M215 105V138H247L278 169V240H168V270H105L42 215V50H160L215 105Z" fill="black"/>
<path d="M155 55V116H108V210H47V55H155Z" fill="white"/>
<path d="M242 143V204H134V143H242Z" fill="white"/>
<path d="M72.5693 173.664L73.0811 186.561H73.7207L74.6484 172.16H80.793L81.5605 186.561H82.2012L82.7129 173.664L83.0332 166.4H88.3125L86.2012 192H78.7129L77.8486 177.376H77.209L76.249 192H68.793L66.6807 166.4H72.249L72.5693 173.664Z" fill="black"/>
<path fill-rule="evenodd" clip-rule="evenodd" d="M211.977 167.761L212.648 168.368H212.905C214.505 168.368 215.935 168.753 217.193 169.521C218.452 170.288 219.444 171.334 220.169 172.656C220.894 173.979 221.257 175.483 221.257 177.168C221.257 179.024 220.83 180.667 219.977 182.097C219.145 183.505 217.992 184.614 216.521 185.425C215.07 186.235 213.385 186.641 211.465 186.641C209.588 186.641 207.912 186.245 206.44 185.456C204.969 184.645 203.817 183.526 202.985 182.097C202.153 180.667 201.737 179.024 201.737 177.168C201.737 175.824 201.971 174.49 202.44 173.168C202.931 171.824 203.678 170.427 204.681 168.977L210.633 160.4H217.353L211.977 167.761ZM211.529 173.168C210.783 173.168 210.121 173.339 209.545 173.681C208.99 174.001 208.552 174.459 208.232 175.057C207.913 175.654 207.753 176.358 207.753 177.168C207.753 177.979 207.903 178.683 208.201 179.28C208.521 179.878 208.958 180.347 209.513 180.688C210.067 181.008 210.718 181.168 211.465 181.168C212.233 181.168 212.895 181.008 213.449 180.688C214.004 180.347 214.441 179.878 214.761 179.28C215.081 178.662 215.241 177.957 215.241 177.168C215.241 176.358 215.081 175.654 214.761 175.057C214.462 174.459 214.035 174.001 213.48 173.681C212.947 173.339 212.297 173.168 211.529 173.168Z" fill="black"/>
<path d="M164.785 159.76C166.726 159.76 168.38 160.111 169.745 160.815C171.132 161.498 172.199 162.48 172.945 163.76C173.692 165.04 174.064 166.576 174.064 168.368C174.064 170.224 173.574 171.845 172.593 173.231C171.611 174.597 170.075 175.813 167.984 176.88L162.705 179.632V180.271H173.457V186H155.856V177.647L165.457 172.144C166.353 171.653 167.004 171.098 167.409 170.479C167.836 169.861 168.049 169.157 168.049 168.368C168.049 167.365 167.771 166.597 167.217 166.063C166.662 165.509 165.862 165.231 164.816 165.231C163.793 165.232 162.939 165.542 162.257 166.16C161.596 166.779 161.148 167.675 160.913 168.848H155.217C155.345 166.906 155.804 165.264 156.593 163.92C157.382 162.555 158.47 161.519 159.856 160.815C161.243 160.111 162.886 159.76 164.785 159.76Z" fill="black"/>
<path d="M77.9766 118.76C79.8752 118.76 81.5186 119.133 82.9053 119.88C84.2917 120.627 85.3797 121.714 86.1689 123.144C86.9583 124.552 87.406 126.258 87.5127 128.264H81.8809C81.6035 126.898 81.134 125.885 80.4727 125.224C79.8327 124.562 79.0005 124.231 77.9766 124.231C76.5261 124.232 75.4273 124.893 74.6807 126.216C73.9554 127.517 73.5928 129.512 73.5928 132.2C73.5928 135.101 73.9555 137.223 74.6807 138.567C75.406 139.911 76.5689 140.584 78.1689 140.584C78.8943 140.584 79.5233 140.413 80.0566 140.071C80.6112 139.73 81.0383 139.261 81.3369 138.664C81.6569 138.045 81.8164 137.341 81.8164 136.552H77.3691V131.304H87.0645V145H81.8164V142.855H80.5049C80.2276 143.709 79.6945 144.371 78.9053 144.84C78.116 145.309 77.145 145.544 75.9932 145.544C73.3053 145.544 71.2358 144.403 69.7852 142.12C68.3345 139.816 67.6084 136.509 67.6084 132.2C67.6084 127.806 68.4831 124.466 70.2324 122.184C72.003 119.901 74.5847 118.76 77.9766 118.76Z" fill="black"/>
<path d="M125.169 71.7598C127.089 71.7598 128.742 72.1541 130.129 72.9434C131.516 73.7327 132.603 74.8748 133.393 76.3682C134.182 77.8614 134.641 79.6637 134.769 81.7754H129.265C128.966 80.2396 128.476 79.0982 127.793 78.3516C127.132 77.605 126.257 77.2315 125.169 77.2314C123.761 77.2314 122.694 77.8932 121.969 79.2158C121.265 80.5172 120.913 82.5123 120.913 85.2002C120.913 87.888 121.244 89.8932 121.905 91.2158C122.567 92.517 123.569 93.168 124.913 93.168C125.916 93.1679 126.737 92.8262 127.377 92.1436C128.017 91.4396 128.496 90.3726 128.816 88.9434H134.321C134.193 90.9912 133.724 92.7408 132.913 94.1914C132.124 95.6207 131.046 96.7193 129.681 97.4873C128.337 98.2553 126.748 98.6396 124.913 98.6396C121.649 98.6396 119.164 97.4984 117.457 95.2158C115.75 92.9332 114.897 89.5947 114.896 85.2002C114.896 80.8056 115.771 77.4663 117.521 75.1836C119.291 72.9009 121.841 71.7598 125.169 71.7598Z" fill="black"/>
<path d="M86.7773 78.1279H80.5049V92.2725H86.7773V98H68.2168V92.2725H74.4893V78.1279H68.2168V72.4004H86.7773V78.1279Z" fill="black"/>
</svg>
