<svg width="320" height="320" viewBox="0 0 320 320" fill="none" xmlns="http://www.w3.org/2000/svg">
<path d="M250 111V178L278 206V277H113L43 207V89H109V42H180L250 111Z" fill="black"/>
<path d="M242 241H134V180H242V241Z" fill="white"/>
<path d="M175 155H109V202H48V94H114V47H175V155Z" fill="white"/>
<path fill-rule="evenodd" clip-rule="evenodd" d="M211.977 204.761L212.648 205.368H212.905C214.505 205.368 215.934 205.753 217.192 206.521C218.451 207.288 219.444 208.334 220.169 209.656C220.894 210.979 221.257 212.483 221.257 214.168C221.257 216.024 220.83 217.667 219.977 219.097C219.145 220.505 217.992 221.614 216.521 222.425C215.07 223.235 213.385 223.641 211.465 223.641C209.588 223.641 207.912 223.245 206.44 222.456C204.969 221.645 203.816 220.526 202.984 219.097C202.152 217.667 201.737 216.024 201.737 214.168C201.737 212.824 201.971 211.49 202.44 210.168C202.931 208.824 203.678 207.427 204.681 205.977L210.633 197.4H217.353L211.977 204.761ZM211.529 210.168C210.783 210.168 210.121 210.339 209.545 210.681C208.99 211.001 208.552 211.459 208.232 212.057C207.913 212.654 207.753 213.358 207.753 214.168C207.753 214.979 207.903 215.683 208.201 216.28C208.521 216.878 208.958 217.347 209.513 217.688C210.067 218.008 210.718 218.168 211.465 218.168C212.233 218.168 212.895 218.008 213.449 217.688C214.004 217.347 214.441 216.878 214.761 216.28C215.081 215.662 215.241 214.957 215.241 214.168C215.241 213.358 215.081 212.654 214.761 212.057C214.462 211.459 214.035 211.001 213.48 210.681C212.947 210.339 212.297 210.168 211.529 210.168Z" fill="black"/>
<path d="M164.785 196.76C166.726 196.76 168.38 197.111 169.745 197.815C171.132 198.498 172.198 199.48 172.944 200.76C173.691 202.04 174.064 203.576 174.064 205.368C174.064 207.224 173.574 208.845 172.593 210.231C171.611 211.597 170.075 212.813 167.984 213.88L162.705 216.632V217.271H173.457V223H155.856V214.647L165.457 209.144C166.353 208.653 167.004 208.098 167.409 207.479C167.836 206.861 168.049 206.157 168.049 205.368C168.049 204.365 167.771 203.597 167.217 203.063C166.662 202.509 165.862 202.231 164.816 202.231C163.793 202.232 162.939 202.542 162.257 203.16C161.596 203.779 161.148 204.674 160.913 205.848H155.217C155.345 203.906 155.803 202.264 156.593 200.92C157.382 199.555 158.47 198.519 159.856 197.815C161.243 197.111 162.886 196.76 164.785 196.76Z" fill="black"/>
<path d="M73.5693 165.664L74.0811 178.561H74.7207L75.6484 164.16H81.793L82.5605 178.561H83.2012L83.7129 165.664L84.0332 158.4H89.3125L87.2012 184H79.7129L78.8486 169.376H78.209L77.249 184H69.793L67.6807 158.4H73.249L73.5693 165.664Z" fill="black"/>
<path d="M78.9766 110.76C80.8752 110.76 82.5186 111.133 83.9053 111.88C85.2917 112.627 86.3797 113.714 87.1689 115.144C87.9583 116.552 88.406 118.258 88.5127 120.264H82.8809C82.6035 118.898 82.134 117.885 81.4727 117.224C80.8327 116.562 80.0005 116.231 78.9766 116.231C77.5261 116.232 76.4273 116.893 75.6807 118.216C74.9554 119.517 74.5928 121.512 74.5928 124.2C74.5928 127.101 74.9555 129.223 75.6807 130.567C76.406 131.911 77.5689 132.584 79.1689 132.584C79.8943 132.584 80.5233 132.413 81.0566 132.071C81.6112 131.73 82.0383 131.261 82.3369 130.664C82.6569 130.045 82.8164 129.341 82.8164 128.552H78.3691V123.304H88.0645V137H82.8164V134.855H81.5049C81.2276 135.709 80.6945 136.371 79.9053 136.84C79.116 137.309 78.145 137.544 76.9932 137.544C74.3053 137.544 72.2358 136.403 70.7852 134.12C69.3345 131.816 68.6094 128.509 68.6094 124.2C68.6094 119.806 69.4831 116.466 71.2324 114.184C73.003 111.901 75.5847 110.76 78.9766 110.76Z" fill="black"/>
<path d="M153.776 117.128H147.505V131.272H153.776V137H135.217V131.272H141.489V117.128H135.217V111.4H153.776V117.128Z" fill="black"/>
<path d="M145.169 63.7598C147.089 63.7598 148.742 64.1541 150.129 64.9434C151.516 65.7327 152.603 66.8748 153.393 68.3682C154.182 69.8614 154.641 71.6636 154.769 73.7754H149.265C148.966 72.2396 148.476 71.0982 147.793 70.3516C147.132 69.605 146.257 69.2314 145.169 69.2314C143.761 69.2315 142.694 69.8932 141.969 71.2158C141.265 72.5172 140.913 74.5123 140.913 77.2002C140.913 79.888 141.244 81.8932 141.905 83.2158C142.567 84.517 143.569 85.168 144.913 85.168C145.916 85.1679 146.737 84.8262 147.377 84.1436C148.017 83.4396 148.497 82.3726 148.817 80.9434H154.321C154.193 82.9912 153.724 84.7408 152.913 86.1914C152.124 87.6207 151.046 88.7193 149.681 89.4873C148.337 90.2553 146.748 90.6396 144.913 90.6396C141.649 90.6396 139.164 89.4984 137.457 87.2158C135.75 84.9332 134.898 81.5947 134.897 77.2002C134.897 72.8056 135.771 69.4663 137.521 67.1836C139.291 64.9009 141.841 63.7598 145.169 63.7598Z" fill="black"/>
</svg>
